<?xml version="1.0" standalone="no"?>
<!DOCTYPE svg PUBLIC "-//W3C//DTD SVG 1.1//EN" "http://www.w3.org/Graphics/SVG/1.1/DTD/svg11.dtd" >
<svg xmlns="http://www.w3.org/2000/svg">
<metadata></metadata>
<defs>
<font id="helvetica_lt_stdlight" horiz-adv-x="1138" >
<font-face units-per-em="2048" ascent="1470" descent="-578" />
<missing-glyph horiz-adv-x="569" />
<glyph horiz-adv-x="2048" />
<glyph horiz-adv-x="2048" />
<glyph unicode="&#xd;" horiz-adv-x="682" />
<glyph unicode=" "  horiz-adv-x="569" />
<glyph unicode="&#x09;" horiz-adv-x="569" />
<glyph unicode="&#xa0;" horiz-adv-x="569" />
<glyph unicode="!" horiz-adv-x="681" d="M266 0v180h150v-180h-150zM266 1016v459h150v-459l-29 -645h-92z" />
<glyph unicode="&#x22;" horiz-adv-x="569" d="M117 1012v463h106v-463h-106zM344 1012v463h107v-463h-107z" />
<glyph unicode="#" d="M55 467v121h244l43 286h-229v121h245l66 435h123l-66 -435h279l63 435h121l-63 -435h204v-121h-221l-41 -286h209v-121h-227l-66 -467h-121l64 467h-281l-69 -467h-121l70 467h-226zM420 588h282l41 286h-278z" />
<glyph unicode="$" d="M76 416h133q0 -139 88 -237.5t225 -106.5v608q-96 23 -160.5 49.5t-126 69.5t-91 110.5t-29.5 161.5q0 168 119.5 272.5t289.5 100.5v125h94v-125q172 2 283 -94.5t117 -266.5h-133q-2 111 -78 180.5t-189 69.5v-545q115 -27 184.5 -53t135.5 -74.5t94.5 -125 t28.5 -189.5q0 -170 -134 -275.5t-309 -109.5v-156h-94v156q-367 20 -438 354q-6 35 -10 101zM246 1077q0 -123 68.5 -177t207.5 -93v526q-117 0 -196.5 -71.5t-79.5 -184.5zM618 72q129 0 220.5 85t91.5 212q0 139 -78 198.5t-234 91.5v-587z" />
<glyph unicode="%" horiz-adv-x="1820" d="M137 1089.5q0 139.5 99.5 240t238.5 100.5t239.5 -100.5t100.5 -240t-100.5 -238.5t-239.5 -99t-238.5 99t-99.5 238.5zM254 1089.5q0 -90.5 65.5 -156t155.5 -65.5t156.5 66.5t66.5 155.5q0 90 -66.5 156.5t-156.5 66.5t-155.5 -66.5t-65.5 -157zM449 -29l813 1473h106 l-813 -1473h-106zM1008 340q0 137 100 237.5t239.5 100.5t236.5 -99.5t97 -238.5q0 -141 -96 -240.5t-237 -99.5q-139 0 -239.5 100.5t-100.5 239.5zM1124 336q0 -88 66.5 -153.5t155 -65.5t154 66.5t65.5 156.5t-65.5 155.5t-153.5 65.5q-92 0 -157 -66.5t-65 -158.5z" />
<glyph unicode="&#x26;" horiz-adv-x="1366" d="M84 399q0 156 97.5 269.5t254.5 187.5q-158 182 -157 330q0 135 95 212t236 77q135 0 222.5 -83t87.5 -202q0 -70 -20.5 -125t-70 -101t-87 -73t-113.5 -72l370 -438q61 102 62 287h121q-10 -244 -103 -385l240 -283h-166l-143 174q-94 -113 -205 -163t-260 -50 q-197 0 -329 121.5t-132 316.5zM223 389q0 -143 94.5 -230t237.5 -87q209 0 375 196l-420 500q-127 -59 -207 -160.5t-80 -218.5zM403 1188q0 -94 154 -277q61 37 88 54.5t69 57.5t60 83q39 88 -12 173t-162 85q-80 0 -138.5 -49t-58.5 -127z" />
<glyph unicode="'" horiz-adv-x="454" d="M174 1012v463h107v-463h-107z" />
<glyph unicode="(" horiz-adv-x="681" d="M113 565q0 268 87 490.5t263 457.5h104q-313 -455 -313 -958q0 -479 313 -946h-104q-182 252 -266 466t-84 490z" />
<glyph unicode=")" horiz-adv-x="681" d="M115 -391q313 455 313 958q0 479 -313 946h104q182 -252 266 -465.5t84 -490.5q0 -268 -87 -490.5t-263 -457.5h-104z" />
<glyph unicode="*" horiz-adv-x="796" d="M90 1237l37 86l227 -88v240h86v-240l234 86l31 -90l-234 -76l154 -217l-80 -49l-152 221l-160 -217l-71 55l157 207z" />
<glyph unicode="+" horiz-adv-x="1351" d="M164 451v122h450v451h123v-451h451v-122h-451v-451h-123v451h-450z" />
<glyph unicode="," horiz-adv-x="569" d="M209 0v180h149v-241q0 -172 -149 -220v76q70 43 70 135v70h-70z" />
<glyph unicode="-" horiz-adv-x="681" d="M82 469v127h518v-127h-518z" />
<glyph unicode="." horiz-adv-x="569" d="M209 0v180h149v-180h-149z" />
<glyph unicode="/" horiz-adv-x="569" d="M-6 -184l481 1697h115l-481 -1697h-115z" />
<glyph unicode="0" d="M80 711q0 121 10 218t42 196.5t85 167t142.5 109.5t209.5 42q123 0 214 -47t142.5 -118t82 -176.5t40 -198.5t9.5 -208q0 -156 -21.5 -276.5t-73 -227t-150.5 -164t-242.5 -57.5t-244 57.5t-151.5 165t-72.5 231.5t-21.5 286zM211 696q0 -299 81 -456.5t277 -157.5 q111 0 185.5 54t109.5 153.5t48.5 198t13.5 223.5q0 131 -14.5 231t-51.5 194.5t-111.5 145.5t-183.5 51q-354 0 -354 -637z" />
<glyph unicode="1" d="M246 1073v86q78 4 123 11.5t98 24.5t84 46t56.5 79t37.5 124h105v-1444h-132v1073h-372z" />
<glyph unicode="2" d="M98 0q2 115 25.5 197t87.5 155q68 80 156 147.5t160.5 108.5t146.5 88t124 89t81.5 105.5t31.5 145.5q0 137 -90 217t-227 80q-139 0 -229.5 -107.5t-83.5 -254.5h-140q0 213 128 343t341 130q211 0 328 -112.5t117 -287.5q0 -109 -43 -196.5t-119 -150t-150.5 -107.5 t-170 -97.5t-146.5 -91.5q-86 -66 -135 -132t-53 -158h804v-111h-944z" />
<glyph unicode="3" d="M70 418h131q0 -162 97 -249t261 -87q154 0 259.5 98.5t99.5 227.5q-6 166 -133.5 234.5t-331.5 53.5v107q201 -2 307 59.5t106 216.5q0 127 -87 190.5t-220 63.5q-137 0 -223 -87t-86 -222h-131q0 193 139 324q106 96 328 96q180 0 295.5 -91t115.5 -266 q0 -233 -204 -321q256 -80 256 -356q0 -184 -124 -308.5t-341 -130.5q-254 0 -372.5 99.5t-141.5 347.5z" />
<glyph unicode="4" d="M74 356v113l671 961h119v-963h201v-111h-201v-356h-131v356h-659zM203 467h530v766z" />
<glyph unicode="5" d="M72 375h131q20 -143 115.5 -218t240.5 -75q158 0 252 105.5t94 263.5q0 164 -98 265t-260 101q-199 0 -314 -149l-108 14l117 748h716v-111h-606l-90 -485q84 55 151.5 74.5t166.5 19.5q203 0 329.5 -129t126.5 -348.5t-134 -349.5t-322 -130q-477 1 -508 404z" />
<glyph unicode="6" d="M84 662q0 111 13.5 213t50 208.5t93 184.5t150.5 127t217 49q174 0 288 -92t134 -262h-135q-23 115 -92.5 179t-181.5 64q-74 0 -133.5 -23.5t-98.5 -56t-69.5 -93t-47 -107.5t-30 -126t-17.5 -124t-10 -123q41 55 66.5 84t72.5 67.5t105.5 56t134.5 17.5q217 0 338 -124 t121 -341q0 -219 -122 -344t-341 -125q-233 0 -369.5 164.5t-136.5 526.5zM264 436q0 -139 82 -246.5t246 -107.5q168 0 249 106.5t81 255.5q0 350 -332 351q-147 0 -236.5 -103.5t-89.5 -255.5z" />
<glyph unicode="7" d="M121 1298v132h919v-123q-281 -317 -426 -682t-159 -625h-144q20 301 186.5 665.5t385.5 632.5h-762z" />
<glyph unicode="8" d="M90 397q0 131 65.5 231.5t186.5 147.5q-115 72 -158 133.5t-43 182.5q0 150 121 254t291 98q182 0 309 -89t127 -263q0 -227 -196 -324q119 -43 187.5 -138t68.5 -220q0 -209 -137.5 -324t-370.5 -115q-174 0 -312.5 113.5t-138.5 312.5zM221 397q0 -137 98.5 -226 t260.5 -89q145 0 241.5 90t96.5 234q0 145 -97.5 223t-249.5 78q-158 0 -254 -78t-96 -232zM272 1073q0 -127 88.5 -191.5t219.5 -64.5q127 0 202.5 69.5t75.5 215.5q0 231 -293 231q-127 0 -210 -68.5t-83 -191.5z" />
<glyph unicode="9" d="M84 967q0 213 119 345t346 132q506 0 506 -729q0 -356 -144.5 -550t-382.5 -194q-176 0 -289.5 88t-129.5 258h133q47 -236 280 -235q98 0 172 43t114 105.5t66.5 156.5t36 168t13.5 168l-4 4q-137 -225 -390 -225q-203 0 -324.5 127t-121.5 338zM215 963 q0 -164 88 -257.5t246 -93.5q150 0 236.5 103.5t86.5 255.5q0 162 -87 261t-236 101q-164 -2 -249 -100t-85 -270z" />
<glyph unicode=":" horiz-adv-x="569" d="M209 0v180h149v-180h-149zM209 827v181h149v-181h-149z" />
<glyph unicode=";" horiz-adv-x="569" d="M209 0v180h149v-241q0 -172 -149 -220v76q70 43 70 135v70h-70zM209 827v181h149v-181h-149z" />
<glyph unicode="&#x3c;" horiz-adv-x="1351" d="M164 469v109l1024 456v-131l-862 -381l862 -403v-131z" />
<glyph unicode="=" horiz-adv-x="1351" d="M164 254v123h1024v-123h-1024zM164 651v123h1024v-123h-1024z" />
<glyph unicode="&#x3e;" horiz-adv-x="1351" d="M164 -12v131l862 403l-862 381v131l1024 -456v-109z" />
<glyph unicode="?" horiz-adv-x="1024" d="M78 1057q-14 201 112.5 328.5t329.5 127.5q207 0 327 -104t120 -281q0 -82 -41 -154.5t-94.5 -118.5t-122 -112.5t-105.5 -126.5q-43 -68 -43 -243h-119q-2 133 18.5 218t94.5 163q27 27 91.5 88t96 96t62.5 91t31 110q0 115 -86 189.5t-233.5 74.5t-232.5 -98.5 t-81 -247.5h-125zM430 0v180h150v-180h-150z" />
<glyph unicode="@" horiz-adv-x="1638" d="M82 743q0 317 227.5 543.5t540.5 226.5q297 0 501.5 -184t204.5 -463q0 -236 -152.5 -417t-324.5 -181q-59 0 -109 28t-67 79q-98 -102 -244 -103q-129 0 -206.5 89.5t-77.5 218.5q0 141 62.5 282.5t182 239.5t263.5 98q74 0 136 -36t93 -99l31 94h137l-207 -618 q-12 -39 -18 -64.5t-6 -51.5t15 -38t44 -12q123 0 224.5 163.5t101.5 333.5q0 242 -169 390.5t-411 148.5q-281 0 -465 -199.5t-184 -482.5q0 -279 188.5 -472.5t464.5 -193.5q160 0 305.5 74t237.5 205h121q-96 -176 -277.5 -278.5t-386.5 -102.5q-328 0 -552 228t-224 554 zM530 590q0 -78 42 -133.5t118 -55.5q129 2 233.5 187.5t104.5 341.5q0 61 -40 105t-101 44q-150 0 -253.5 -164.5t-103.5 -324.5z" />
<glyph unicode="A" horiz-adv-x="1366" d="M31 0l579 1475h158l565 -1475h-143l-170 463h-672l-174 -463h-143zM395 582h578l-289 774z" />
<glyph unicode="B" horiz-adv-x="1366" d="M166 0v1475h532q483 0 484 -371q0 -143 -67.5 -222t-168.5 -96v-4q150 -23 226.5 -120t76.5 -246q0 -416 -481 -416h-602zM305 119h354q248 0 349.5 57t101.5 240q0 170 -107.5 229.5t-326.5 59.5h-371v-586zM305 823h352q209 0 297 70t88 211q0 139 -93 195.5t-322 56.5 h-322v-533z" />
<glyph unicode="C" horiz-adv-x="1478" d="M98 737q0 401 186.5 588.5t499.5 187.5q231 0 384 -120.5t188 -345.5h-144q-41 184 -155.5 266t-308.5 82q-252 0 -381 -185.5t-129 -468.5q0 -104 15 -196t53 -179t96.5 -148.5t149.5 -99.5t208 -38q184 0 304 110.5t163 294.5h145q-55 -238 -208.5 -381t-430.5 -143 q-166 0 -291 61.5t-198.5 171t-109.5 245.5t-36 298z" />
<glyph unicode="D" horiz-adv-x="1478" d="M166 0v1475h504q147 0 253.5 -21.5t200.5 -89.5q131 -96 188.5 -270t57.5 -355q0 -365 -178 -559q-160 -180 -522 -180h-504zM305 119h334q217 0 346 67q70 37 121 99.5t76.5 140.5t37 154.5t11.5 158.5q0 426 -254 561q-102 55 -338 56h-334v-1237z" />
<glyph unicode="E" horiz-adv-x="1251" d="M166 0v1475h981v-119h-842v-533h760v-118h-760v-586h862v-119h-1001z" />
<glyph unicode="F" d="M152 0v1475h950v-119h-811v-533h737v-118h-737v-705h-139z" />
<glyph unicode="G" horiz-adv-x="1593" d="M109 745q0 342 174 555t508 213q240 0 404.5 -118.5t211.5 -347.5h-143q-37 162 -165 255t-298 93q-281 0 -417 -188.5t-136 -516.5q0 -256 145.5 -433t388.5 -177q133 0 255 62.5t190 195.5q59 117 63 305h-497v119h630v-762h-118v252q-82 -141 -213 -216t-338 -75 q-291 0 -468 201.5t-177 582.5z" />
<glyph unicode="H" horiz-adv-x="1478" d="M164 0v1475h139v-633h873v633h139v-1475h-139v723h-873v-723h-139z" />
<glyph unicode="I" horiz-adv-x="569" d="M215 0v1475h139v-1475h-139z" />
<glyph unicode="J" horiz-adv-x="1024" d="M45 467h139q0 -68 2 -112t16.5 -100t42 -88t80 -55.5t126.5 -23.5q139 0 199.5 80t60.5 240v1067h139v-1072q0 -442 -416 -442q-119 0 -199.5 40t-119.5 117t-54.5 157.5t-15.5 191.5z" />
<glyph unicode="K" horiz-adv-x="1366" d="M174 0v1475h139v-764l756 764h158l-582 -588l684 -887h-170l-614 801l-232 -232v-569h-139z" />
<glyph unicode="L" d="M166 0v1475h139v-1356h791v-119h-930z" />
<glyph unicode="M" horiz-adv-x="1705" d="M160 0v1475h213l483 -1301h4l475 1301h211v-1475h-139v1315h-4l-483 -1315h-132l-485 1315h-4v-1315h-139z" />
<glyph unicode="N" horiz-adv-x="1478" d="M162 0v1475h157l852 -1289h5v1289h139v-1475h-162l-848 1286h-4v-1286h-139z" />
<glyph unicode="O" horiz-adv-x="1593" d="M109 743q0 331 179 549q181 221 500 221q332 0 513.5 -219t181.5 -559q0 -334 -180.5 -554t-508 -220t-506.5 220.5t-179 561.5zM248 735q0 -283 138 -469t411 -186q270 0 408 187.5t138 467.5q0 307 -147 483.5t-403 176.5q-180 0 -307.5 -95.5t-182.5 -241t-55 -323.5z " />
<glyph unicode="P" horiz-adv-x="1251" d="M160 0v1475h538q481 0 482 -412q0 -96 -33 -170t-87 -118t-130 -72.5t-152 -40t-164 -11.5h-315v-651h-139zM299 770h319q213 0 317.5 63.5t104.5 239.5q0 283 -381 283h-360v-586z" />
<glyph unicode="Q" horiz-adv-x="1593" d="M98 735q0 156 43 295t124 247.5t214 172t299 63.5q317 0 506 -204.5t189 -573.5q0 -381 -222 -596l197 -151l-78 -94l-217 167q-158 -100 -369 -100q-328 0 -507 220t-179 554zM238 735q0 -285 138 -470t410 -185q147 0 258 65l-167 129l73 97l199 -152q184 176 184 516 q0 319 -152.5 489.5t-398.5 170.5q-137 0 -243.5 -54.5t-171 -148.5t-97 -210t-32.5 -247z" />
<glyph unicode="R" horiz-adv-x="1366" d="M164 0v1475h577q502 0 502 -388q0 -139 -55 -221t-184 -139q61 -20 101 -62t57.5 -104.5t22.5 -110t7 -122.5q4 -160 18.5 -225.5t42.5 -88.5v-14h-153q-33 59 -47.5 263t-18.5 226q-23 109 -95.5 145t-197.5 36h-438v-670h-139zM303 788h434q166 0 266.5 73t100.5 220 q0 274 -359 275h-442v-568z" />
<glyph unicode="S" horiz-adv-x="1251" d="M88 440h135q31 -360 424 -360q186 0 280.5 87t94.5 218q0 92 -49 153.5t-129 91t-175.5 52.5t-191.5 49.5t-176 67.5t-129 121.5t-49 197.5q0 164 132 279.5t368 115.5q237 -1 367 -125q128 -123 128 -309v-6h-133q0 160 -104.5 241t-257.5 81q-197 0 -289 -100 q-75 -81 -76 -181q0 -22 4 -45q12 -76 69.5 -126t137.5 -75.5t174 -45t185.5 -45t166 -67.5t120.5 -122t46 -197q0 -203 -142 -316.5t-396 -113.5q-240 0 -387.5 124t-147.5 355z" />
<glyph unicode="T" d="M33 1356v119h1073v-119h-467v-1356h-139v1356h-467z" />
<glyph unicode="U" horiz-adv-x="1478" d="M168 555v920h139v-879q0 -272 102.5 -394t329.5 -122q233 0 332.5 125t99.5 391v879h140v-920q0 -289 -144.5 -441.5t-427.5 -152.5q-285 0 -428 153.5t-143 440.5z" />
<glyph unicode="V" horiz-adv-x="1251" d="M37 1475h145l445 -1311l442 1311h145l-512 -1475h-153z" />
<glyph unicode="W" horiz-adv-x="1820" d="M29 1475h139l317 -1278h4l342 1278h156l336 -1278h4l322 1278h143l-387 -1475h-154l-342 1303h-4l-342 -1303h-153z" />
<glyph unicode="X" horiz-adv-x="1251" d="M37 0l508 758l-488 717h162l404 -621l405 621h162l-483 -717l505 -758h-159l-430 651l-428 -651h-158z" />
<glyph unicode="Y" horiz-adv-x="1251" d="M25 1475h159l434 -711l445 711h162l-535 -832v-643h-139v633z" />
<glyph unicode="Z" horiz-adv-x="1251" d="M63 0v117l945 1239h-865v119h1037v-117l-944 -1239h950v-119h-1123z" />
<glyph unicode="[" horiz-adv-x="681" d="M186 -391v1904h392v-102h-261v-1700h256v-102h-387z" />
<glyph unicode="\" horiz-adv-x="569" d="M-20 1513h114l481 -1697h-114z" />
<glyph unicode="]" horiz-adv-x="681" d="M104 -289h261v1700h-256v102h387v-1904h-392v102z" />
<glyph unicode="^" horiz-adv-x="1351" d="M150 502l471 928h106l473 -928h-117l-411 803l-404 -803h-118z" />
<glyph unicode="_" horiz-adv-x="1024" d="M0 -154h1024v-102h-1024v102z" />
<glyph unicode="`" horiz-adv-x="681" d="M92 1460h160l227 -284h-104z" />
<glyph unicode="a" d="M94 276q0 270 371 320l170 22q106 10 162 35q45 20 45 111q0 215 -264 215q-137 0 -215 -54.5t-95 -185.5h-125q12 178 131 264.5t306 86.5q176 0 280.5 -78t104.5 -252v-578q0 -74 25 -91q10 -7 29 -7q28 0 75 16v-96q-61 -20 -97 -20q-27 0 -55 6q-94 14 -98 157 q-158 -176 -395 -176q-150 0 -252.5 80t-102.5 225zM225 272q0 -92 67.5 -141t162.5 -49q160 0 273.5 79t113.5 230v166q-104 -43 -318 -59q-299 -23 -299 -226z" />
<glyph unicode="b" horiz-adv-x="1251" d="M162 0v1475h123v-584q57 94 160.5 146.5t218.5 52.5q229 0 351 -161t121 -401q0 -252 -117.5 -404.5t-361.5 -152.5q-106 0 -211.5 57.5t-156.5 157.5h-4v-186h-123zM285 535q0 -199 95 -326t263 -127q160 0 260.5 110.5t102.5 305.5v16.5v16.5q0 187 -86 312 q-94 136 -277 136q-162 0 -260 -129t-98 -315z" />
<glyph unicode="c" d="M96 528q0 233 130 397.5t358 164.5q385 0 440 -363h-125q-70 252 -315 252q-176 0 -266.5 -133t-90.5 -318q0 -186 89.5 -316t267.5 -130q135 0 219 75.5t106 209.5h131q-33 -184 -148.5 -290t-307.5 -106q-242 0 -365 153.5t-123 403.5z" />
<glyph unicode="d" horiz-adv-x="1251" d="M115 528q0 240 121.5 401t351.5 161q115 0 218 -52.5t161 -146.5v584h123v-1475h-123v186h-4q-51 -100 -157 -157.5t-212 -57.5q-244 0 -361.5 152.5t-117.5 404.5zM245 531q0 -16 1 -33q2 -195 102.5 -305.5t259.5 -110.5q168 0 263.5 127t95.5 326q0 186 -98.5 315 t-260.5 129q-182 0 -276 -136q-87 -125 -87 -312z" />
<glyph unicode="e" d="M92 526q0 240 133 402t354.5 162t345.5 -153q122 -151 122 -426v-9h-824v-7q1 -175 93 -293q94 -120 264 -120q121 0 207.5 64.5t113.5 179.5h137q-109 -354 -458 -355q-244 0 -366 152.5t-122 402.5zM223 604h692q0 162 -88 268.5t-247 106.5q-154 0 -245.5 -106.5 t-111.5 -268.5z" />
<glyph unicode="f" horiz-adv-x="569" d="M41 958v103h158v168q0 274 225 274q59 0 102 -8v-113q-41 10 -73 11q-45 0 -74 -16.5t-40 -50.5t-14 -60.5t-3 -73.5v-131h204v-103h-204v-958h-123v958h-158z" />
<glyph unicode="g" horiz-adv-x="1251" d="M115 532q0 252 117.5 405t361.5 153q106 0 211.5 -57.5t157.5 -158.5h4v187h123v-959q0 -115 -21.5 -205t-75 -168.5t-155 -120.5t-246.5 -42q-213 0 -326.5 95t-122.5 210h131q45 -195 318 -195q96 0 167.5 29t111.5 74t62.5 112.5t29.5 132.5q4 40 4 87v19v40 q-57 -94 -161 -146.5t-218 -52.5q-229 0 -351 160.5t-122 400.5zM245 530q0 -187 87 -312q94 -136 276 -136q162 0 260.5 129t98.5 315q0 199 -95.5 326t-263.5 127q-160 0 -260 -110.5t-102 -305.5q-1 -17 -1 -33z" />
<glyph unicode="h" d="M147 0v1475h123v-562q82 88 161 132.5t181 44.5q219 0 324 -152q53 -78 53 -244v-694h-123v692q0 145 -64.5 216t-209.5 71q-109 0 -186.5 -59.5t-108.5 -147.5q-27 -74 -27 -201v-571h-123z" />
<glyph unicode="i" horiz-adv-x="454" d="M160 1292v183h135v-183h-135zM166 0v1061h123v-1061h-123z" />
<glyph unicode="j" horiz-adv-x="454" d="M10 -301q27 -3 49 -3q61 0 86 24q35 34 35 122v1219h123v-1202q0 -154 -38 -215.5t-175 -61.5q-45 0 -80 8v109zM174 1292v183h135v-183h-135z" />
<glyph unicode="k" horiz-adv-x="1024" d="M139 0v1475h123v-918l520 504h168l-397 -383l444 -678h-137l-397 592l-201 -191v-401h-123z" />
<glyph unicode="l" horiz-adv-x="454" d="M166 0v1475h123v-1475h-123z" />
<glyph unicode="m" horiz-adv-x="1705" d="M131 0v1061h123v-160h4q47 90 135 139.5t193 49.5q135 0 203.5 -53.5t107.5 -151.5q104 205 346 205q104 0 173 -34t101.5 -98.5t44 -131t11.5 -156.5v-670h-123v733q0 121 -51 183.5t-176 62.5q-150 0 -240 -121q-70 -90 -70 -287v-571h-122v733q0 121 -51.5 183.5 t-176.5 62.5q-150 0 -239 -121q-70 -90 -70 -287v-571h-123z" />
<glyph unicode="n" d="M147 0v1061h123v-148q82 88 161 132.5t181 44.5q219 0 324 -152q53 -78 53 -244v-694h-123v692q0 145 -64.5 216t-209.5 71q-109 0 -186.5 -59.5t-108.5 -147.5q-27 -74 -27 -201v-571h-123z" />
<glyph unicode="o" d="M78 530q0 244 128 402t363 158q240 0 366 -157t126 -403q0 -252 -134 -405.5t-358 -153.5q-215 4 -353 148.5t-138 410.5zM209 530q0 -203 94 -325.5t266 -122.5q180 0 270.5 130t90.5 318q-2 203 -89 326t-272 123q-180 0 -270 -129.5t-90 -319.5z" />
<glyph unicode="p" horiz-adv-x="1251" d="M162 -418v1479h123v-187h4q51 100 156.5 158t211.5 58q244 0 362 -153t118 -405q0 -240 -122 -400.5t-351 -160.5q-115 0 -218.5 52.5t-160.5 146.5v-588h-123zM285 526q0 -186 98 -315t260 -129q182 0 277 136q86 124 86 308v37q-2 195 -102.5 305.5t-260.5 110.5 q-168 0 -263 -127t-95 -326z" />
<glyph unicode="q" horiz-adv-x="1251" d="M115 532q0 252 117.5 405t361.5 153q106 0 211.5 -57.5t157.5 -158.5h4v187h123v-1479h-123v588q-57 -94 -161 -146.5t-218 -52.5q-229 0 -351 160.5t-122 400.5zM245 531q0 -16 1 -33q2 -195 102.5 -305.5t259.5 -110.5q168 0 263.5 127t95.5 326q0 186 -98.5 315 t-260.5 129q-182 0 -276 -136q-87 -125 -87 -312z" />
<glyph unicode="r" horiz-adv-x="681" d="M154 0v1061h122v-199h5q49 125 128.5 176.5t217.5 51.5v-134q-6 0 -13 1q-338 0 -338 -437v-520h-122z" />
<glyph unicode="s" horiz-adv-x="1024" d="M94 332h125q29 -135 103.5 -192.5t214.5 -57.5q127 0 194.5 57.5t67.5 139.5q0 84 -70 129t-170 63t-200.5 43t-170 91.5t-69.5 180.5q0 135 99 219.5t274 84.5q367 0 409 -334h-125q-31 223 -287 223q-115 0 -177 -49t-62 -133q0 -68 50 -111t126 -60.5t164 -42 t163.5 -52t126 -91t50.5 -159.5q0 -147 -119 -228.5t-313 -81.5q-182 0 -289 102.5t-115 258.5z" />
<glyph unicode="t" horiz-adv-x="569" d="M41 958v103h149v295h123v-295h199v-103h-199v-727q0 -88 17.5 -118.5t89.5 -30.5q43 0 100 14v-100q-115 -25 -141 -25q-94 0 -141.5 48.5t-47.5 162.5v776h-149z" />
<glyph unicode="u" d="M147 362v699h123v-696q0 -283 273 -283q150 0 236.5 111.5t86.5 289.5v578h123v-1061h-123v147q-47 -53 -78.5 -81.5t-104.5 -61.5t-159 -33q-377 0 -377 391z" />
<glyph unicode="v" horiz-adv-x="1024" d="M35 1061h133l344 -909l344 909h133l-411 -1061h-138z" />
<glyph unicode="w" horiz-adv-x="1478" d="M31 1061h123l274 -905l246 905h137l233 -897l279 897h125l-344 -1061h-131l-232 891h-4l-235 -891h-148z" />
<glyph unicode="x" horiz-adv-x="1024" d="M37 0l407 549l-374 512h151l293 -422l301 422h156l-383 -512l397 -549h-147l-322 459l-330 -459h-149z" />
<glyph unicode="y" horiz-adv-x="1024" d="M37 1061h137l340 -911l340 911h133l-395 -1047q-37 -98 -57.5 -149t-54.5 -115.5t-62.5 -94.5t-70.5 -51.5t-91 -21.5q-59 0 -117 15v114q66 -12 103 -12q63 0 100 47t67.5 138t39.5 108z" />
<glyph unicode="z" horiz-adv-x="1024" d="M68 0v109l704 849h-657v103h815v-109l-705 -850h731v-102h-888z" />
<glyph unicode="{" horiz-adv-x="681" d="M92 559v4q106 31 137 83t31 163v373q0 186 62.5 260t234.5 67q-166 -57 -166 -247v-394q0 -133 -33.5 -205.5t-134.5 -99.5v-4q96 -23 132 -88t36 -188v-422q0 -104 42 -162.5t138 -85.5v-4q-176 -2 -243.5 65.5t-67.5 229.5v418q0 102 -35 160.5t-133 76.5z" />
<glyph unicode="|" horiz-adv-x="454" d="M166 -512v2048h123v-2048h-123z" />
<glyph unicode="}" horiz-adv-x="681" d="M104 1518v4q176 2 244 -65.5t68 -229.5v-418q0 -102 34.5 -160.5t133.5 -77.5v-4q-106 -31 -137 -83t-31 -162v-373q0 -186 -62.5 -260t-234.5 -68q166 57 166 248v393q0 133 33.5 206t134.5 99v4q-96 23 -132 88.5t-36 188.5v422q0 104 -42.5 162.5t-138.5 85.5z" />
<glyph unicode="~" horiz-adv-x="1351" d="M164 453q41 61 70.5 97t90 75t128.5 39q80 0 239 -74q164 -74 211 -74q109 0 203 178l82 -69q-117 -223 -287 -224q-68 0 -276 86q-10 4 -50 23.5t-68 29t-54 9.5q-39 0 -73 -16.5t-62.5 -52.5t-45 -58.5t-41.5 -65.5z" />
<glyph unicode="&#xa1;" horiz-adv-x="681" d="M266 76l29 645h92l29 -645v-459h-150v459zM266 911v179h150v-179h-150z" />
<glyph unicode="&#xa2;" d="M92 528q0 264 136.5 413t351.5 149q59 0 120 -11l82 246h99l-90 -274q193 -82 229 -324h-125q-37 141 -143 207l-277 -838q57 -14 105 -14q135 0 219 75.5t106 209.5h131q-25 -168 -144.5 -282t-311.5 -114q-70 0 -140 17l-92 -277h-96l100 307q-129 63 -194.5 196.5 t-65.5 313.5zM223 528q0 -125 42 -230t126 -159l273 830q-33 10 -84 10q-176 0 -266.5 -133.5t-90.5 -317.5z" />
<glyph unicode="&#xa3;" d="M51 662v86h166q-2 4 -39 70.5t-53 121.5t-16 129q0 168 118.5 271.5t337.5 103.5q207 0 337 -121t128 -324h-135q-6 160 -93 247t-235 87q-133 0 -230 -70.5t-97 -199.5q0 -55 18 -104.5t62.5 -119t56.5 -91.5h340v-86h-309q23 -80 22 -140q0 -184 -197 -385l5 -4 q106 55 182 55q102 0 204.5 -43t170.5 -43q66 0 113.5 30t107.5 87l69 -104q-92 -84 -163.5 -114t-192.5 -30q-43 0 -161.5 45t-200.5 45q-66 0 -215 -67l-72 119q217 158 217 368q0 94 -43 181h-203z" />
<glyph unicode="&#xa4;" d="M55 614q0 170 99 310l-88 88l106 108l90 -88q133 100 316 101q154 0 299 -101l90 88l106 -108l-88 -88q98 -141 98 -320q0 -147 -98 -293l88 -86l-106 -108l-90 88q-139 -102 -318 -103q-152 0 -297 103l-90 -88l-106 108l88 86q-99 143 -99 303zM203 614 q-2 -147 106.5 -256.5t255.5 -109.5q154 0 263.5 108.5t109.5 264.5q0 147 -106.5 256.5t-253.5 107.5q-160 4 -268.5 -103.5t-106.5 -267.5z" />
<glyph unicode="&#xa5;" d="M8 1475h156l403 -711l414 711h149l-350 -586h228v-111h-295l-78 -135v-86h373v-111h-373v-446h-131v446h-373v111h373v86l-78 135h-295v111h227z" />
<glyph unicode="&#xa6;" horiz-adv-x="454" d="M166 358h123v-716h-123v716zM166 666v716h123v-716h-123z" />
<glyph unicode="&#xa7;" d="M98 686q0 98 61.5 176t157.5 119q-55 61 -81.5 113.5t-26.5 122.5q0 127 98.5 211.5t272.5 84.5q170 0 263 -98t91 -268h-111q-4 129 -64.5 192.5t-189.5 63.5q-102 0 -165.5 -50t-63.5 -149q0 -76 71.5 -145.5t175 -125.5t207 -115.5t175 -143.5t71.5 -182 q0 -106 -57 -176t-168 -144q119 -111 119 -225q0 -152 -102.5 -235t-258.5 -83q-172 0 -272 100.5t-108 272.5h124q0 -127 66 -194.5t192 -67.5q92 0 160 51t68 141q0 47 -18.5 87t-61.5 79t-67.5 56.5t-80.5 54.5l-268 168q-104 66 -156.5 137.5t-52.5 171.5zM209 702 q0 -70 47 -122t127 -105l365 -235q182 100 182 231q0 72 -51.5 125t-135.5 102l-354 217q-180 -76 -180 -213z" />
<glyph unicode="&#xa8;" horiz-adv-x="681" d="M123 1196v209h133v-209h-133zM449 1196v209h133v-209h-133z" />
<glyph unicode="&#xa9;" horiz-adv-x="1638" d="M43 739q0 319 228.5 546.5t550 227.5t547.5 -227t226 -547q0 -324 -226 -551t-547.5 -227t-550 228t-228.5 550zM166 739q0 -287 186.5 -481.5t468.5 -194.5q281 0 466.5 195t185.5 481q0 285 -185.5 478.5t-466.5 193.5q-283 0 -469 -193.5t-186 -478.5zM426 745 q0 197 114.5 321t309.5 124q143 0 243.5 -78t120.5 -215h-110q-16 90 -87 146.5t-165 56.5q-147 0 -227 -100.5t-80 -251.5q0 -147 84 -254t227 -107q94 0 165 58.5t83 152.5h110q-14 -135 -117.5 -218t-240.5 -83q-193 0 -311.5 126.5t-118.5 321.5z" />
<glyph unicode="&#xaa;" horiz-adv-x="684" d="M16 1024q0 162 240 193l111 14q74 6 106 20q29 10 29 66q0 61 -42 98t-130 37q-182 0 -201 -149h-82q8 106 86 158t199 52q250 0 250 -198v-346q0 -43 16 -54.5t68 5.5v-58q-47 -16 -99 -10q-61 10 -65 96q-100 -106 -256 -106q-96 0 -163 47t-67 135zM96 1022 q0 -55 46 -87t108 -32q104 0 178 49t74 142v100q-61 -25 -207 -37q-199 -14 -199 -135z" />
<glyph unicode="&#xab;" d="M231 467v129l299 231v-129l-213 -168l213 -163v-127zM608 467v129l299 231v-129l-213 -168l213 -163v-127z" />
<glyph unicode="&#xac;" horiz-adv-x="1351" d="M164 651v123h1024v-545h-131v422h-893z" />
<glyph unicode="&#xad;" horiz-adv-x="681" d="M82 469v127h518v-127h-518z" />
<glyph unicode="&#xae;" horiz-adv-x="1638" d="M43 739q0 319 228.5 546.5t550 227.5t547.5 -227t226 -547q0 -324 -226 -551t-547.5 -227t-550 228t-228.5 550zM166 739q0 -287 186.5 -481.5t468.5 -194.5q281 0 466.5 195t185.5 481q0 285 -185.5 478.5t-466.5 193.5q-283 0 -469 -193.5t-186 -478.5zM532 305v866 h379q166 0 237 -58t71 -171q0 -229 -273 -237l262 -400h-127l-247 400h-195v-400h-107zM639 788h162h47h53q12 0 48 3.5t50.5 9.5t40 17t35.5 27.5t19.5 41t9.5 57.5q0 63 -35 99t-77 44.5t-105 8.5h-248v-308z" />
<glyph unicode="&#xaf;" horiz-adv-x="681" d="M47 1253v93h606v-93h-606z" />
<glyph unicode="&#xb0;" horiz-adv-x="819" d="M102 1137q-2 125 89.5 216t218.5 91t217 -91t90 -216q0 -127 -90 -217.5t-217 -90.5t-217.5 90.5t-90.5 217.5zM184 1137q0 -94 65.5 -160t160.5 -66q92 0 158.5 65.5t66.5 160.5q0 92 -66.5 158.5t-160.5 66.5q-92 0 -159 -66.5t-65 -158.5z" />
<glyph unicode="&#xb1;" horiz-adv-x="1351" d="M164 0v123h1024v-123h-1024zM164 553v123h450v348h123v-348h451v-123h-451v-348h-123v348h-450z" />
<glyph unicode="&#xb2;" horiz-adv-x="681" d="M31 647q0 135 71 211q63 68 152.5 123t152 85t107.5 82t45 122q0 82 -59.5 130t-147.5 48q-90 0 -149.5 -64.5t-55.5 -154.5h-90q0 129 83 206.5t222 77.5q137 0 213 -67.5t76 -171.5q0 -80 -47 -144.5t-102.5 -96.5t-139 -76t-118.5 -68q-119 -82 -123 -176h522v-66 h-612z" />
<glyph unicode="&#xb3;" horiz-adv-x="681" d="M23 897h86q0 -96 63.5 -148.5t169.5 -52.5q100 0 168 59.5t63 135.5q-6 193 -301 174v63q131 0 200 36t69 130q0 76 -56.5 115t-142.5 39q-90 0 -146.5 -52.5t-56.5 -133.5h-84q0 117 90 194q70 57 213 57q117 0 193 -55t76 -158q0 -139 -133 -194q166 -47 165 -213 q0 -111 -80.5 -185.5t-222.5 -76.5q-166 0 -242.5 59.5t-90.5 206.5z" />
<glyph unicode="&#xb4;" horiz-adv-x="681" d="M223 1176l228 284h157l-280 -284h-105z" />
<glyph unicode="&#xb5;" d="M147 -418v1479h123v-696q0 -283 273 -283q150 0 236.5 111.5t86.5 289.5v578h123v-1061h-123v147q-47 -53 -78.5 -81.5t-104.5 -61.5t-159 -33q-147 0 -254 66v-455h-123z" />
<glyph unicode="&#xb6;" horiz-adv-x="1331" d="M135 1077q0 190 121 294t336 104h444v-1774h-123v1636h-262v-1636h-123v987q-158 -2 -275.5 114.5t-117.5 274.5z" />
<glyph unicode="&#xb7;" horiz-adv-x="569" d="M184 717q0 39 31 68.5t70 29.5t68.5 -28.5t29.5 -69.5t-28.5 -71t-69.5 -30t-71 30t-30 71z" />
<glyph unicode="&#xb8;" horiz-adv-x="681" d="M111 -385l30 61q92 -31 131 -30q51 0 93.5 24.5t42.5 71.5q0 39 -30 59.5t-73 20.5q-29 0 -90 -17l-31 27l123 168h80l-96 -121q49 12 74 12q63 0 107 -32.5t50 -73.5q18 -102 -49 -155.5t-176 -53.5q-84 0 -186 39z" />
<glyph unicode="&#xb9;" horiz-adv-x="681" d="M178 1290v53q63 4 98 9.5t73 23t58.5 50t30.5 87.5h68v-866h-86v643h-242z" />
<glyph unicode="&#xba;" horiz-adv-x="684" d="M23 1178q0 147 82.5 241t236.5 94q156 0 238 -94t82 -241q0 -152 -88.5 -244t-231.5 -92q-139 4 -229 90t-90 246zM102 1178q0 -121 63.5 -198t176.5 -77q117 0 178.5 81t61.5 194q0 121 -59.5 197.5t-180.5 76.5q-119 0 -179.5 -80.5t-60.5 -193.5z" />
<glyph unicode="&#xbb;" d="M231 240v129l213 168l-213 163v127l299 -227v-129zM608 240v129l213 168l-213 163v127l299 -227v-129z" />
<glyph unicode="&#xbc;" horiz-adv-x="1708" d="M82 1290v53q63 4 98 9.5t73 23t58.5 50t30.5 87.5h68v-866h-86v643h-242zM344 -29l909 1473h105l-909 -1473h-105zM983 213v68l436 577h78v-577h129v-68h-129v-213h-86v213h-428zM1067 281h344v458z" />
<glyph unicode="&#xbd;" horiz-adv-x="1708" d="M82 1290v53q63 4 98 9.5t73 23t58.5 50t30.5 87.5h68v-866h-86v643h-242zM262 -29l909 1473h105l-909 -1473h-105zM1006 0q0 135 71 211q63 68 152.5 123t152 85t107.5 82t45 122q0 82 -59.5 130t-147.5 48q-90 0 -149.5 -64.5t-55.5 -154.5h-90q0 129 83 206.5t222 77.5 q137 0 213 -67.5t76 -171.5q0 -80 -47 -144.5t-102.5 -96.5t-139.5 -76t-118 -68q-119 -82 -123 -176h522v-66h-612z" />
<glyph unicode="&#xbe;" horiz-adv-x="1708" d="M82 897h86q0 -96 63.5 -148.5t169.5 -52.5q100 0 168 59.5t64 135.5q-6 193 -301 174v63q131 0 199.5 36t68.5 130q0 76 -56.5 115t-142.5 39q-90 0 -146 -52.5t-56 -133.5h-84q0 117 90 194q70 57 213 57q117 0 192.5 -55t75.5 -158q0 -139 -133 -194q166 -47 166 -213 q0 -111 -81 -185.5t-222 -76.5q-166 0 -243 59.5t-91 206.5zM426 -29l909 1473h105l-910 -1473h-104zM983 213v68l436 577h78v-577h129v-68h-129v-213h-86v213h-428zM1067 281h344v458z" />
<glyph unicode="&#xbf;" horiz-adv-x="1024" d="M57 -39q0 82 41 154.5t94.5 119t122 113t105.5 125.5q43 68 43 244h119q2 -133 -18.5 -218t-94.5 -163q-27 -27 -91.5 -88.5t-96 -96t-62.5 -91t-31 -109.5q0 -115 86 -189.5t233.5 -74.5t232.5 98t81 248h125q14 -201 -112.5 -329t-329.5 -128q-207 0 -327 104.5 t-120 280.5zM444 909v181h150v-181h-150z" />
<glyph unicode="&#xc0;" horiz-adv-x="1366" d="M31 0l579 1475h158l565 -1475h-143l-170 463h-672l-174 -463h-143zM395 582h578l-289 774zM434 1874h160l227 -285h-104z" />
<glyph unicode="&#xc1;" horiz-adv-x="1366" d="M31 0l579 1475h158l565 -1475h-143l-170 463h-672l-174 -463h-143zM395 582h578l-289 774zM565 1589l228 285h157l-280 -285h-105z" />
<glyph unicode="&#xc2;" horiz-adv-x="1366" d="M31 0l579 1475h158l565 -1475h-143l-170 463h-672l-174 -463h-143zM391 1589l234 285h137l231 -285h-133l-168 209l-168 -209h-133zM395 582h578l-289 774z" />
<glyph unicode="&#xc3;" horiz-adv-x="1366" d="M31 0l579 1475h158l565 -1475h-143l-170 463h-672l-174 -463h-143zM375 1614q6 63 41 121q31 45 80 65.5t100 7.5q33 -6 123 -47t129 -41q70 0 90 103h78q-2 -18 -17 -78q-53 -123 -151 -123q-59 0 -156.5 46t-142.5 46q-41 0 -63.5 -26.5t-36.5 -73.5h-74zM395 582h578 l-289 774z" />
<glyph unicode="&#xc4;" horiz-adv-x="1366" d="M31 0l579 1475h158l565 -1475h-143l-170 463h-672l-174 -463h-143zM395 582h578l-289 774zM465 1610v209h133v-209h-133zM791 1610v209h133v-209h-133z" />
<glyph unicode="&#xc5;" horiz-adv-x="1366" d="M31 0l579 1475h158l565 -1475h-143l-170 463h-672l-174 -463h-143zM395 582h578l-289 774zM520 1800q0 82 61.5 143.5t143.5 61.5t142.5 -61.5t60.5 -143.5q0 -84 -60.5 -143.5t-142.5 -59.5q-84 0 -144.5 60.5t-60.5 142.5zM588 1800q0 -55 41 -95t96 -40q53 0 94 41 t41 94q0 55 -40 96t-95 41t-96 -41t-41 -96z" />
<glyph unicode="&#xc6;" horiz-adv-x="2048" d="M10 0l641 1475h1291v-119h-836v-533h760v-118h-760v-586h860v-119h-999v463h-621l-196 -463h-140zM403 582h564v774h-234z" />
<glyph unicode="&#xc7;" horiz-adv-x="1478" d="M98 737q0 401 186.5 588.5t499.5 187.5q231 0 384 -120.5t188 -345.5h-144q-41 184 -155.5 266t-308.5 82q-252 0 -381 -185.5t-129 -468.5q0 -104 15 -196t53 -179t96.5 -148.5t149.5 -99.5t208 -38q184 0 304 110.5t163 294.5h145q-53 -231 -200.5 -373.5 t-413.5 -148.5l-68 -84q49 12 74 12q63 0 107 -32.5t51 -73.5q18 -102 -49.5 -155.5t-176.5 -53.5q-84 0 -186 39l31 61q92 -31 131 -30q51 0 93 24.5t42 71.5q0 39 -29.5 59.5t-72.5 20.5q-29 0 -91 -17l-30 27l96 131q-199 12 -334 124t-191.5 275.5t-56.5 374.5z" />
<glyph unicode="&#xc8;" horiz-adv-x="1251" d="M166 0v1475h981v-119h-842v-533h760v-118h-760v-586h862v-119h-1001zM377 1874h160l227 -285h-105z" />
<glyph unicode="&#xc9;" horiz-adv-x="1251" d="M166 0v1475h981v-119h-842v-533h760v-118h-760v-586h862v-119h-1001zM508 1589l227 285h158l-281 -285h-104z" />
<glyph unicode="&#xca;" horiz-adv-x="1251" d="M166 0v1475h981v-119h-842v-533h760v-118h-760v-586h862v-119h-1001zM334 1589l233 285h138l231 -285h-133l-168 209l-168 -209h-133z" />
<glyph unicode="&#xcb;" horiz-adv-x="1251" d="M166 0v1475h981v-119h-842v-533h760v-118h-760v-586h862v-119h-1001zM408 1610v209h133v-209h-133zM733 1610v209h133v-209h-133z" />
<glyph unicode="&#xcc;" horiz-adv-x="569" d="M37 1874h160l227 -285h-105zM215 0v1475h139v-1475h-139z" />
<glyph unicode="&#xcd;" horiz-adv-x="569" d="M125 1589l227 285h158l-281 -285h-104zM215 0v1475h139v-1475h-139z" />
<glyph unicode="&#xce;" horiz-adv-x="569" d="M-49 1589l233 285h138l231 -285h-133l-168 209l-168 -209h-133zM215 0v1475h139v-1475h-139z" />
<glyph unicode="&#xcf;" horiz-adv-x="569" d="M25 1610v209h133v-209h-133zM215 0v1475h139v-1475h-139zM350 1610v209h133v-209h-133z" />
<glyph unicode="&#xd0;" horiz-adv-x="1478" d="M20 723v119h146v633h504q147 0 253.5 -21.5t200.5 -89.5q131 -96 188.5 -270t57.5 -355q0 -365 -178 -559q-160 -180 -522 -180h-504v723h-146zM305 119h334q217 0 346 67q70 37 121 99.5t76.5 140.5t37 154.5t11.5 158.5q0 426 -254 561q-102 55 -338 56h-334v-514h330 v-119h-330v-604z" />
<glyph unicode="&#xd1;" horiz-adv-x="1478" d="M162 0v1475h157l852 -1289h5v1289h139v-1475h-162l-848 1286h-4v-1286h-139zM432 1614q6 63 41 121q31 45 80 65.5t100 7.5q33 -6 123 -47t129 -41q70 0 90 103h78q-2 -18 -16 -78q-53 -123 -152 -123q-59 0 -156.5 46t-142.5 46q-41 0 -63.5 -26.5t-36.5 -73.5h-74z" />
<glyph unicode="&#xd2;" horiz-adv-x="1593" d="M109 735q-2 336 179 557t500 221q332 0 513.5 -219t181.5 -559q0 -334 -180.5 -554t-508 -220t-506.5 220t-179 554zM248 735q0 -283 138 -469t411 -186q270 0 408 187.5t138 467.5q0 307 -147 483.5t-403 176.5q-180 0 -307.5 -95.5t-182.5 -241t-55 -323.5zM549 1874 h160l227 -285h-105z" />
<glyph unicode="&#xd3;" horiz-adv-x="1593" d="M109 735q-2 336 179 557t500 221q332 0 513.5 -219t181.5 -559q0 -334 -180.5 -554t-508 -220t-506.5 220t-179 554zM248 735q0 -283 138 -469t411 -186q270 0 408 187.5t138 467.5q0 307 -147 483.5t-403 176.5q-180 0 -307.5 -95.5t-182.5 -241t-55 -323.5zM680 1589 l227 285h158l-281 -285h-104z" />
<glyph unicode="&#xd4;" horiz-adv-x="1593" d="M109 735q-2 336 179 557t500 221q332 0 513.5 -219t181.5 -559q0 -334 -180.5 -554t-508 -220t-506.5 220t-179 554zM248 735q0 -283 138 -469t411 -186q270 0 408 187.5t138 467.5q0 307 -147 483.5t-403 176.5q-180 0 -307.5 -95.5t-182.5 -241t-55 -323.5zM506 1589 l233 285h138l231 -285h-133l-168 209l-168 -209h-133z" />
<glyph unicode="&#xd5;" horiz-adv-x="1593" d="M109 735q-2 336 179 557t500 221q332 0 513.5 -219t181.5 -559q0 -334 -180.5 -554t-508 -220t-506.5 220t-179 554zM248 735q0 -283 138 -469t411 -186q270 0 408 187.5t138 467.5q0 307 -147 483.5t-403 176.5q-180 0 -307.5 -95.5t-182.5 -241t-55 -323.5zM489 1614 q6 63 41 121q31 45 80 65.5t101 7.5q33 -6 123 -47t129 -41q70 0 90 103h77q-2 -18 -16 -78q-53 -123 -151 -123q-59 0 -156.5 46t-142.5 46q-41 0 -63.5 -26.5t-37.5 -73.5h-74z" />
<glyph unicode="&#xd6;" horiz-adv-x="1593" d="M109 735q-2 336 179 557t500 221q332 0 513.5 -219t181.5 -559q0 -334 -180.5 -554t-508 -220t-506.5 220t-179 554zM248 735q0 -283 138 -469t411 -186q270 0 408 187.5t138 467.5q0 307 -147 483.5t-403 176.5q-180 0 -307.5 -95.5t-182.5 -241t-55 -323.5zM580 1610 v209h133v-209h-133zM905 1610v209h133v-209h-133z" />
<glyph unicode="&#xd7;" horiz-adv-x="1351" d="M170 86l432 432l-432 432l76 74l432 -430l430 430l76 -74l-430 -432l430 -432l-76 -74l-430 430l-432 -430z" />
<glyph unicode="&#xd8;" horiz-adv-x="1593" d="M86 -6l182 207q-166 205 -166 534q0 338 183.5 558t496.5 220q295 0 475 -178l170 195l80 -72l-178 -205q63 -72 105.5 -209t42.5 -309q0 -334 -180.5 -554t-508.5 -220q-270 0 -448 162l-174 -199zM242 735q0 -260 114 -434l815 936q-143 158 -385 158 q-137 0 -243.5 -54.5t-171 -148.5t-97 -210t-32.5 -247zM424 219q139 -139 367 -139q270 0 408 187.5t138 467.5q0 240 -100 412z" />
<glyph unicode="&#xd9;" horiz-adv-x="1478" d="M168 555v920h139v-879q0 -272 102.5 -394t329.5 -122q233 0 332.5 125t99.5 391v879h140v-920q0 -289 -144.5 -441.5t-427.5 -152.5q-285 0 -428 153.5t-143 440.5zM492 1874h159l228 -285h-105z" />
<glyph unicode="&#xda;" horiz-adv-x="1478" d="M168 555v920h139v-879q0 -272 102.5 -394t329.5 -122q233 0 332.5 125t99.5 391v879h140v-920q0 -289 -144.5 -441.5t-427.5 -152.5q-285 0 -428 153.5t-143 440.5zM623 1589l227 285h158l-281 -285h-104z" />
<glyph unicode="&#xdb;" horiz-adv-x="1478" d="M168 555v920h139v-879q0 -272 102.5 -394t329.5 -122q233 0 332.5 125t99.5 391v879h140v-920q0 -289 -144.5 -441.5t-427.5 -152.5q-285 0 -428 153.5t-143 440.5zM449 1589l233 285h137l232 -285h-133l-168 209l-168 -209h-133z" />
<glyph unicode="&#xdc;" horiz-adv-x="1478" d="M168 555v920h139v-879q0 -272 102.5 -394t329.5 -122q233 0 332.5 125t99.5 391v879h140v-920q0 -289 -144.5 -441.5t-427.5 -152.5q-285 0 -428 153.5t-143 440.5zM522 1610v209h133v-209h-133zM848 1610v209h133v-209h-133z" />
<glyph unicode="&#xdd;" horiz-adv-x="1251" d="M25 1475h159l434 -711l445 711h162l-535 -832v-643h-139v633zM508 1589l227 285h158l-281 -285h-104z" />
<glyph unicode="&#xde;" horiz-adv-x="1251" d="M160 0v1475h139v-308h399q481 0 482 -411q0 -96 -33 -170t-87 -118t-130 -72.5t-152 -40t-164 -11.5h-315v-344h-139zM299 463h319q213 0 317.5 63.5t104.5 239.5q0 283 -381 283h-360v-586z" />
<glyph unicode="&#xdf;" horiz-adv-x="1024" d="M106 0v1114q0 389 383 389q178 0 287 -102.5t109 -278.5q0 -172 -172 -297q111 -39 169 -141t58 -225q0 -236 -113.5 -362t-318.5 -126q-45 0 -76 11v108q158 -29 267.5 56t109.5 262q0 193 -90 276.5t-287 83.5v102q322 8 322 254q0 123 -63.5 196t-194.5 73 q-166 0 -216.5 -73t-50.5 -228v-1092h-123z" />
<glyph unicode="&#xe0;" d="M94 276q0 270 371 320l170 22q106 10 162 35q45 20 45 111q0 215 -264 215q-137 0 -215 -54.5t-95 -185.5h-125q12 178 131 264.5t306 86.5q176 0 280.5 -78t104.5 -252v-578q0 -74 25.5 -91t103.5 9v-96q-61 -20 -97 -20q-27 0 -55 6q-94 14 -98 157 q-158 -176 -395 -176q-150 0 -252.5 80t-102.5 225zM225 272q0 -92 67.5 -141t162.5 -49q160 0 273.5 79t113.5 230v166q-104 -43 -318 -59q-299 -23 -299 -226zM322 1460h159l228 -284h-105z" />
<glyph unicode="&#xe1;" d="M94 276q0 270 371 320l170 22q106 10 162 35q45 20 45 111q0 215 -264 215q-137 0 -215 -54.5t-95 -185.5h-125q12 178 131 264.5t306 86.5q176 0 280.5 -78t104.5 -252v-578q0 -74 25.5 -91t103.5 9v-96q-61 -20 -97 -20q-27 0 -55 6q-94 14 -98 157 q-158 -176 -395 -176q-150 0 -252.5 80t-102.5 225zM225 272q0 -92 67.5 -141t162.5 -49q160 0 273.5 79t113.5 230v166q-104 -43 -318 -59q-299 -23 -299 -226zM453 1176l227 284h158l-281 -284h-104z" />
<glyph unicode="&#xe2;" d="M94 276q0 270 371 320l170 22q106 10 162 35q45 20 45 111q0 215 -264 215q-137 0 -215 -54.5t-95 -185.5h-125q12 178 131 264.5t306 86.5q176 0 280.5 -78t104.5 -252v-578q0 -74 25.5 -91t103.5 9v-96q-61 -20 -97 -20q-27 0 -55 6q-94 14 -98 157 q-158 -176 -395 -176q-150 0 -252.5 80t-102.5 225zM225 272q0 -92 67.5 -141t162.5 -49q160 0 273.5 79t113.5 230v166q-104 -43 -318 -59q-299 -23 -299 -226zM279 1176l233 284h137l232 -284h-133l-168 208l-168 -208h-133z" />
<glyph unicode="&#xe3;" d="M94 276q0 270 371 320l170 22q106 10 162 35q45 20 45 111q0 215 -264 215q-137 0 -215 -54.5t-95 -185.5h-125q12 178 131 264.5t306 86.5q176 0 280.5 -78t104.5 -252v-578q0 -74 25.5 -91t103.5 9v-96q-61 -20 -97 -20q-27 0 -55 6q-94 14 -98 157 q-158 -176 -395 -176q-150 0 -252.5 80t-102.5 225zM225 272q0 -92 67.5 -141t162.5 -49q160 0 273.5 79t113.5 230v166q-104 -43 -318 -59q-299 -23 -299 -226zM262 1200q6 63 41 121q31 45 80 65.5t100 8.5q33 -6 123 -47t129 -41q70 0 90 102h78q-2 -18 -16 -78 q-53 -123 -152 -123q-59 0 -156.5 46t-142.5 46q-41 0 -63.5 -26.5t-36.5 -73.5h-74z" />
<glyph unicode="&#xe4;" d="M94 276q0 270 371 320l170 22q106 10 162 35q45 20 45 111q0 215 -264 215q-137 0 -215 -54.5t-95 -185.5h-125q12 178 131 264.5t306 86.5q176 0 280.5 -78t104.5 -252v-578q0 -74 25.5 -91t103.5 9v-96q-61 -20 -97 -20q-27 0 -55 6q-94 14 -98 157 q-158 -176 -395 -176q-150 0 -252.5 80t-102.5 225zM225 272q0 -92 67.5 -141t162.5 -49q160 0 273.5 79t113.5 230v166q-104 -43 -318 -59q-299 -23 -299 -226zM352 1196v209h133v-209h-133zM678 1196v209h133v-209h-133z" />
<glyph unicode="&#xe5;" d="M94 276q0 270 371 320l170 22q106 10 162 35q45 20 45 111q0 215 -264 215q-137 0 -215 -54.5t-95 -185.5h-125q12 178 131 264.5t306 86.5q176 0 280.5 -78t104.5 -252v-578q0 -74 25.5 -91t103.5 9v-96q-61 -20 -97 -20q-27 0 -55 6q-94 14 -98 157 q-158 -176 -395 -176q-150 0 -252.5 80t-102.5 225zM225 272q0 -92 67.5 -141t162.5 -49q160 0 273.5 79t113.5 230v166q-104 -43 -318 -59q-299 -23 -299 -226zM367 1386.5q0 81.5 61 143t143 61.5t142.5 -61.5t60.5 -143.5q0 -84 -59.5 -143t-143.5 -59t-144 60.5t-60 142 zM434 1386.5q0 -55.5 41 -95.5t96 -40q53 0 94.5 41t41.5 94q0 55 -40 96.5t-95.5 41.5t-96.5 -41t-41 -96.5z" />
<glyph unicode="&#xe6;" horiz-adv-x="1820" d="M80 270q0 141 93 227.5t276 106.5l116 12q154 16 197 41t43 91q0 133 -57.5 182t-200.5 49q-266 0 -295 -234h-127q10 172 125 258.5t293 86.5q297 0 370 -175q66 98 154 136.5t217 38.5t219 -45.5t139.5 -128t71 -184t21.5 -230.5h-799q0 -186 87 -303t265 -117 q119 0 199 64.5t110 181.5h129q-41 -172 -155.5 -264.5t-292.5 -92.5q-268 0 -410 234q-51 -70 -93 -112t-136 -82t-217 -40q-152 0 -247 76t-95 223zM211 289q0 -100 58.5 -153.5t162.5 -53.5q180 0 276.5 91t96.5 245v143q-59 -31 -172 -48t-200 -26.5t-154.5 -57.5 t-67.5 -140zM936 604h668q0 160 -85 267.5t-239 107.5q-92 0 -161.5 -37t-107.5 -95.5t-56.5 -120t-18.5 -122.5z" />
<glyph unicode="&#xe7;" d="M96 528q0 233 130 397.5t358 164.5q385 0 440 -363h-125q-70 252 -315 252q-176 0 -266.5 -133t-90.5 -318q0 -186 89.5 -316t267.5 -130q135 0 219 75.5t106 209.5h131q-33 -180 -145.5 -286t-300.5 -110l-74 -92q49 12 74 12q63 0 107 -32.5t51 -73.5 q18 -102 -49.5 -155.5t-176.5 -53.5q-84 0 -186 39l31 61q92 -31 131 -30q51 0 93 24.5t42 71.5q0 39 -29.5 59.5t-72.5 20.5q-29 0 -91 -17l-30 27l106 145q-211 18 -317.5 169t-106.5 382z" />
<glyph unicode="&#xe8;" d="M92 526q0 240 133 402t354.5 162t345.5 -153t122 -435h-824q-2 -180 92.5 -300t264.5 -120q121 0 207.5 64.5t113.5 179.5h137q-109 -354 -458 -355q-244 0 -366 152.5t-122 402.5zM223 604h692q0 162 -88 268.5t-247 106.5q-154 0 -245.5 -106.5t-111.5 -268.5z M322 1460h159l228 -284h-105z" />
<glyph unicode="&#xe9;" d="M92 526q0 240 133 402t354.5 162t345.5 -153t122 -435h-824q-2 -180 92.5 -300t264.5 -120q121 0 207.5 64.5t113.5 179.5h137q-109 -354 -458 -355q-244 0 -366 152.5t-122 402.5zM223 604h692q0 162 -88 268.5t-247 106.5q-154 0 -245.5 -106.5t-111.5 -268.5z M453 1176l227 284h158l-281 -284h-104z" />
<glyph unicode="&#xea;" d="M92 526q0 240 133 402t354.5 162t345.5 -153t122 -435h-824q-2 -180 92.5 -300t264.5 -120q121 0 207.5 64.5t113.5 179.5h137q-109 -354 -458 -355q-244 0 -366 152.5t-122 402.5zM223 604h692q0 162 -88 268.5t-247 106.5q-154 0 -245.5 -106.5t-111.5 -268.5z M279 1176l233 284h137l232 -284h-133l-168 208l-168 -208h-133z" />
<glyph unicode="&#xeb;" d="M92 526q0 240 133 402t354.5 162t345.5 -153t122 -435h-824q-2 -180 92.5 -300t264.5 -120q121 0 207.5 64.5t113.5 179.5h137q-109 -354 -458 -355q-244 0 -366 152.5t-122 402.5zM223 604h692q0 162 -88 268.5t-247 106.5q-154 0 -245.5 -106.5t-111.5 -268.5z M352 1196v209h133v-209h-133zM678 1196v209h133v-209h-133z" />
<glyph unicode="&#xec;" horiz-adv-x="454" d="M-20 1460h159l228 -284h-105zM160 0v1061h123v-1061h-123z" />
<glyph unicode="&#xed;" horiz-adv-x="454" d="M68 1176l227 284h158l-281 -284h-104zM160 0v1061h123v-1061h-123z" />
<glyph unicode="&#xee;" horiz-adv-x="454" d="M-106 1176l233 284h137l232 -284h-134l-167 208l-168 -208h-133zM160 0v1061h123v-1061h-123z" />
<glyph unicode="&#xef;" horiz-adv-x="454" d="M-33 1196v209h133v-209h-133zM160 0v1061h123v-1061h-123zM293 1196v209h133v-209h-133z" />
<glyph unicode="&#xf0;" d="M78 530q0 231 123 395.5t360 164.5q104 0 165.5 -18.5t133.5 -76.5q-72 203 -186 305l-125 -100l-78 49l133 107q-66 45 -164 90l84 67q92 -39 162 -92l113 92l75 -51l-120 -98q145 -137 226 -352t81 -482q0 -252 -134 -405.5t-358 -153.5q-215 4 -353 148.5t-138 410.5z M209 530q0 -203 94 -325.5t266 -122.5q180 0 270.5 130t90.5 318q-2 203 -89 326t-272 123q-180 0 -270 -129.5t-90 -319.5z" />
<glyph unicode="&#xf1;" d="M147 0v1061h123v-148q82 88 161 132.5t181 44.5q219 0 324 -152q53 -78 53 -244v-694h-123v692q0 145 -64.5 216t-209.5 71q-109 0 -186.5 -59.5t-108.5 -147.5q-27 -74 -27 -201v-571h-123zM262 1200q6 63 41 121q31 45 80 65.5t100 8.5q33 -6 123 -47t129 -41 q70 0 90 102h78q-2 -18 -16 -78q-53 -123 -152 -123q-59 0 -156.5 46t-142.5 46q-41 0 -63.5 -26.5t-36.5 -73.5h-74z" />
<glyph unicode="&#xf2;" d="M78 530q0 244 128 402t363 158q240 0 366 -157t126 -403q0 -252 -134 -405.5t-358 -153.5q-215 4 -353 148.5t-138 410.5zM209 530q0 -203 94 -325.5t266 -122.5q180 0 270.5 130t90.5 318q-2 203 -89 326t-272 123q-180 0 -270 -129.5t-90 -319.5zM322 1460h159 l228 -284h-105z" />
<glyph unicode="&#xf3;" d="M78 530q0 244 128 402t363 158q240 0 366 -157t126 -403q0 -252 -134 -405.5t-358 -153.5q-215 4 -353 148.5t-138 410.5zM209 530q0 -203 94 -325.5t266 -122.5q180 0 270.5 130t90.5 318q-2 203 -89 326t-272 123q-180 0 -270 -129.5t-90 -319.5zM453 1176l227 284h158 l-281 -284h-104z" />
<glyph unicode="&#xf4;" d="M78 530q0 244 128 402t363 158q240 0 366 -157t126 -403q0 -252 -134 -405.5t-358 -153.5q-215 4 -353 148.5t-138 410.5zM209 530q0 -203 94 -325.5t266 -122.5q180 0 270.5 130t90.5 318q-2 203 -89 326t-272 123q-180 0 -270 -129.5t-90 -319.5zM279 1176l233 284h137 l232 -284h-133l-168 208l-168 -208h-133z" />
<glyph unicode="&#xf5;" d="M78 530q0 244 128 402t363 158q240 0 366 -157t126 -403q0 -252 -134 -405.5t-358 -153.5q-215 4 -353 148.5t-138 410.5zM209 530q0 -203 94 -325.5t266 -122.5q180 0 270.5 130t90.5 318q-2 203 -89 326t-272 123q-180 0 -270 -129.5t-90 -319.5zM262 1200q6 63 41 121 q31 45 80 65.5t100 8.5q33 -6 123 -47t129 -41q70 0 90 102h78q-2 -18 -16 -78q-53 -123 -152 -123q-59 0 -156.5 46t-142.5 46q-41 0 -63.5 -26.5t-36.5 -73.5h-74z" />
<glyph unicode="&#xf6;" d="M78 530q0 244 128 402t363 158q240 0 366 -157t126 -403q0 -252 -134 -405.5t-358 -153.5q-215 4 -353 148.5t-138 410.5zM209 530q0 -203 94 -325.5t266 -122.5q180 0 270.5 130t90.5 318q-2 203 -89 326t-272 123q-180 0 -270 -129.5t-90 -319.5zM352 1196v209h133 v-209h-133zM678 1196v209h133v-209h-133z" />
<glyph unicode="&#xf7;" horiz-adv-x="1351" d="M164 451v122h1024v-122h-1024zM602 0v180h150v-180h-150zM602 844v180h150v-180h-150z" />
<glyph unicode="&#xf8;" d="M72 12l118 140q-109 143 -108 376q0 244 128 403t363 159q190 0 316 -109l106 127l72 -64l-113 -133q111 -147 111 -383q0 -252 -130 -404.5t-362 -152.5q-197 0 -317 113l-111 -131zM213 528q0 -174 63 -274l533 633q-80 92 -236 92q-180 0 -270 -130.5t-90 -320.5z M332 174q92 -92 241 -92q180 0 270.5 129t90.5 317q0 182 -64 285z" />
<glyph unicode="&#xf9;" d="M147 362v699h123v-696q0 -283 273 -283q150 0 236.5 111.5t86.5 289.5v578h123v-1061h-123v147q-47 -53 -78.5 -81.5t-104.5 -61.5t-159 -33q-377 0 -377 391zM322 1460h159l228 -284h-105z" />
<glyph unicode="&#xfa;" d="M147 362v699h123v-696q0 -283 273 -283q150 0 236.5 111.5t86.5 289.5v578h123v-1061h-123v147q-47 -53 -78.5 -81.5t-104.5 -61.5t-159 -33q-377 0 -377 391zM453 1176l227 284h158l-281 -284h-104z" />
<glyph unicode="&#xfb;" d="M147 362v699h123v-696q0 -283 273 -283q150 0 236.5 111.5t86.5 289.5v578h123v-1061h-123v147q-47 -53 -78.5 -81.5t-104.5 -61.5t-159 -33q-377 0 -377 391zM279 1176l233 284h137l232 -284h-133l-168 208l-168 -208h-133z" />
<glyph unicode="&#xfc;" d="M147 362v699h123v-696q0 -283 273 -283q150 0 236.5 111.5t86.5 289.5v578h123v-1061h-123v147q-47 -53 -78.5 -81.5t-104.5 -61.5t-159 -33q-377 0 -377 391zM352 1196v209h133v-209h-133zM678 1196v209h133v-209h-133z" />
<glyph unicode="&#xfd;" horiz-adv-x="1024" d="M37 1061h137l340 -911l340 911h133l-395 -1047q-37 -98 -57.5 -149t-54.5 -115.5t-62.5 -94.5t-70.5 -51.5t-91 -21.5q-59 0 -117 15v114q66 -12 103 -12q63 0 100 47t67.5 138t39.5 108zM395 1176l228 284h157l-280 -284h-105z" />
<glyph unicode="&#xfe;" horiz-adv-x="1251" d="M162 -418v1893h123v-601h4q51 100 156.5 158t211.5 58q244 0 362 -153t118 -405q0 -240 -122 -400.5t-351 -160.5q-115 0 -218.5 52.5t-160.5 146.5v-588h-123zM285 526q0 -186 98 -315t260 -129q182 0 276.5 136t86.5 345q-2 195 -102.5 305.5t-260.5 110.5 q-168 0 -263 -127t-95 -326z" />
<glyph unicode="&#xff;" horiz-adv-x="1024" d="M37 1061h137l340 -911l340 911h133l-395 -1047q-37 -98 -57.5 -149t-54.5 -115.5t-62.5 -94.5t-70.5 -51.5t-91 -21.5q-59 0 -117 15v114q66 -12 103 -12q63 0 100 47t67.5 138t39.5 108zM295 1196v209h133v-209h-133zM621 1196v209h133v-209h-133z" />
<glyph unicode="&#x152;" horiz-adv-x="2048" d="M84 735q0 223 62.5 393t207 277.5t355.5 107.5q143 0 247.5 -43t169.5 -151v156h834v-119h-700v-533h655v-118h-655v-586h720v-119h-854v147q-86 -88 -181 -137t-230 -49q-164 0 -288 63.5t-197.5 174t-109.5 245.5t-36 291zM223 739q0 -303 124 -481t378 -178 q164 0 295 110q100 86 100 263v567q0 180 -108.5 277.5t-302.5 97.5q-233 0 -359.5 -167t-126.5 -489z" />
<glyph unicode="&#x153;" horiz-adv-x="1933" d="M74 528q0 248 120.5 405t360.5 157q299 0 426 -256q133 256 420 256q133 0 225 -47.5t139 -134.5t66.5 -184t19.5 -222h-804q-8 -84 21.5 -176.5t117.5 -168t219 -75.5q117 0 200 67.5t107 178.5h125q-37 -172 -151.5 -264.5t-284.5 -92.5q-145 0 -254 71t-166 187 q-61 -127 -176 -192.5t-258 -65.5q-213 0 -343 151.5t-130 405.5zM205 510q-2 -184 90 -306t262 -122q172 0 265 128t93 341q0 193 -96 310.5t-274 117.5q-166 0 -256 -126t-84 -343zM1047 604h673q0 170 -80.5 272.5t-244.5 102.5q-152 0 -246 -108.5t-102 -266.5z" />
<glyph unicode="&#x178;" horiz-adv-x="1251" d="M25 1475h159l434 -711l445 711h162l-535 -832v-643h-139v633zM408 1610v209h133v-209h-133zM733 1610v209h133v-209h-133z" />
<glyph unicode="&#x2c6;" horiz-adv-x="681" d="M49 1176l234 284h137l231 -284h-133l-168 208l-168 -208h-133z" />
<glyph unicode="&#x2dc;" horiz-adv-x="681" d="M33 1200q6 63 41 121q31 45 80 65.5t100 8.5q33 -6 123 -47t129 -41q70 0 90 102h78q-2 -18 -17 -78q-53 -123 -151 -123q-59 0 -156.5 46t-142.5 46q-41 0 -63.5 -26.5t-37.5 -73.5h-73z" />
<glyph unicode="&#x2000;" horiz-adv-x="1002" />
<glyph unicode="&#x2001;" horiz-adv-x="2005" />
<glyph unicode="&#x2002;" horiz-adv-x="1002" />
<glyph unicode="&#x2003;" horiz-adv-x="2005" />
<glyph unicode="&#x2004;" horiz-adv-x="668" />
<glyph unicode="&#x2005;" horiz-adv-x="501" />
<glyph unicode="&#x2006;" horiz-adv-x="334" />
<glyph unicode="&#x2007;" horiz-adv-x="334" />
<glyph unicode="&#x2008;" horiz-adv-x="250" />
<glyph unicode="&#x2009;" horiz-adv-x="401" />
<glyph unicode="&#x200a;" horiz-adv-x="111" />
<glyph unicode="&#x2010;" horiz-adv-x="681" d="M82 469v127h518v-127h-518z" />
<glyph unicode="&#x2011;" horiz-adv-x="681" d="M82 469v127h518v-127h-518z" />
<glyph unicode="&#x2012;" horiz-adv-x="681" d="M82 469v127h518v-127h-518z" />
<glyph unicode="&#x2013;" horiz-adv-x="1024" d="M0 487v91h1024v-91h-1024z" />
<glyph unicode="&#x2014;" horiz-adv-x="2048" d="M0 487v91h2048v-91h-2048z" />
<glyph unicode="&#x2018;" horiz-adv-x="454" d="M141 1014v241q0 172 150 220v-76q-70 -43 -70 -135v-70h70v-180h-150z" />
<glyph unicode="&#x2019;" horiz-adv-x="454" d="M164 1014v76q70 43 69 135v69h-69v181h149v-242q1 -172 -149 -219z" />
<glyph unicode="&#x201a;" horiz-adv-x="454" d="M164 0v180h149v-241q0 -172 -149 -220v76q70 43 69 135v70h-69z" />
<glyph unicode="&#x201c;" horiz-adv-x="796" d="M176 1014v241q0 172 150 220v-76q-70 -43 -70 -135v-70h70v-180h-150zM485 1014v241q0 172 150 220v-76q-70 -43 -70 -135v-70h70v-180h-150z" />
<glyph unicode="&#x201d;" horiz-adv-x="796" d="M162 1014v76q70 43 69 135v69h-69v181h149v-242q1 -172 -149 -219zM471 1014v76q70 43 70 135v69h-70v181h150v-242q0 -172 -150 -219z" />
<glyph unicode="&#x201e;" horiz-adv-x="796" d="M162 0v180h149v-241q0 -172 -149 -220v76q70 43 69 135v70h-69zM471 0v180h150v-241q0 -172 -150 -220v76q70 43 70 135v70h-70z" />
<glyph unicode="&#x2022;" horiz-adv-x="1024" d="M143 735q0 154 107.5 262.5t259.5 108.5q154 0 262.5 -108.5t108.5 -262.5q0 -152 -108.5 -259t-262.5 -107q-150 0 -258.5 108t-108.5 258z" />
<glyph unicode="&#x2026;" horiz-adv-x="2048" d="M268 0v180h150v-180h-150zM950 0v180h150v-180h-150zM1632 0v180h150v-180h-150z" />
<glyph unicode="&#x202f;" horiz-adv-x="401" />
<glyph unicode="&#x2039;" horiz-adv-x="796" d="M248 467v129l299 231v-129l-213 -168l213 -163v-127z" />
<glyph unicode="&#x203a;" horiz-adv-x="796" d="M250 240v129l213 168l-213 163v127l299 -227v-129z" />
<glyph unicode="&#x205f;" horiz-adv-x="501" />
<glyph unicode="&#x20ac;" d="M39 483l41 111h125q-4 74 -4 113q0 59 2 88h-160l39 110h131q35 285 167 412t318 127q293 0 398 -238l-58 -155q-35 145 -126 213.5t-214 68.5q-154 0 -240.5 -114.5t-113.5 -313.5h637l-41 -110h-606q0 -14 -1 -43t-1 -43q0 -41 4 -115h530l-41 -111h-477 q63 -401 350 -401q205 0 342 223v-172q-57 -74 -147 -118t-195 -44q-182 0 -312 121t-171 391h-176z" />
<glyph unicode="&#x2122;" horiz-adv-x="1925" d="M59 1393v82h656v-82h-275v-781h-106v781h-275zM874 612v863h197l246 -637h4l242 637h196v-863h-106v772h-4l-297 -772h-70l-297 772h-4v-772h-107z" />
<glyph unicode="&#xe000;" horiz-adv-x="1060" d="M0 0v1060h1060v-1060h-1060z" />
<glyph unicode="&#xfb01;" horiz-adv-x="1024" d="M27 958v103h161v168q0 274 226 274q59 0 102 -8v-113q-41 10 -74 11q-45 0 -73.5 -16.5t-40 -50.5t-14.5 -60.5t-3 -73.5v-131h201v-103h-201v-958h-123v958h-161zM756 1292v183h135v-183h-135zM762 0v1061h123v-1061h-123z" />
<glyph unicode="&#xfb02;" horiz-adv-x="1024" d="M27 958v103h161v168q0 274 226 274q59 0 102 -8v-113q-41 10 -74 11q-45 0 -73.5 -16.5t-40 -50.5t-14.5 -60.5t-3 -73.5v-131h201v-103h-201v-958h-123v958h-161zM762 0v1475h123v-1475h-123z" />
<glyph unicode="&#xfb03;" horiz-adv-x="1593" d="M41 958v103h158v168q0 274 225 274q59 0 102 -8v-113q-41 10 -73 11q-45 0 -74 -16.5t-40 -50.5t-14 -60.5t-3 -73.5v-131h204v-103h-204v-958h-123v958h-158zM610 958v103h158v168q0 274 225 274q59 0 102 -8v-113q-41 10 -73 11q-45 0 -74 -16.5t-40 -50.5t-14 -60.5 t-3 -73.5v-131h204v-103h-204v-958h-123v958h-158zM1299 1292v183h135v-183h-135zM1305 0v1061h123v-1061h-123z" />
<glyph unicode="&#xfb04;" horiz-adv-x="1593" d="M41 958v103h158v168q0 274 225 274q59 0 102 -8v-113q-41 10 -73 11q-45 0 -74 -16.5t-40 -50.5t-14 -60.5t-3 -73.5v-131h204v-103h-204v-958h-123v958h-158zM610 958v103h158v168q0 274 225 274q59 0 102 -8v-113q-41 10 -73 11q-45 0 -74 -16.5t-40 -50.5t-14 -60.5 t-3 -73.5v-131h204v-103h-204v-958h-123v958h-158zM1305 0v1475h123v-1475h-123z" />
</font>
</defs>
</svg>
